<svg version="1.1" id="Layer_1" xmlns="http://www.w3.org/2000/svg" xmlns:xlink="http://www.w3.org/1999/xlink" x="0px" y="0px"
	 width="100%" viewBox="0 0 1024 544" enable-background="new 0 0 1024 544" xml:space="preserve">
<path fill="#000000" opacity="1.000000" stroke="none" 
	d="
M453.628784,156.652573 
	C473.288147,128.531998 492.737427,100.703117 512.036987,73.088509 
	C515.096863,73.221329 515.661011,75.455902 516.738342,76.998543 
	C567.195923,149.247238 617.616821,221.521576 668.059998,293.780365 
	C684.843506,317.822449 701.591248,341.890472 718.565674,365.797302 
	C721.496460,369.924957 721.642822,372.490082 717.740540,376.200409 
	C696.008789,396.863098 674.488708,417.750214 653.057556,438.725433 
	C649.707397,442.004303 647.319519,442.278198 643.362671,439.536621 
	C605.980408,413.635223 568.447571,387.950958 530.971497,362.184814 
	C529.489746,361.166016 527.798584,360.292023 527.182678,358.434875 
	C527.285828,357.084839 528.202576,356.298431 529.060547,355.534332 
	C540.506531,345.340607 552.019836,335.221680 563.390869,324.945190 
	C565.832642,322.738403 567.613281,323.371124 569.942322,324.980347 
	C591.046082,339.562439 612.206726,354.062286 633.348938,368.588745 
	C634.035095,369.060211 634.697266,369.566467 635.380188,370.042938 
	C641.545105,374.344391 648.395508,372.392059 651.689392,365.446655 
	C652.721741,363.269958 651.128784,361.975372 650.132935,360.556122 
	C634.728271,338.601837 619.270020,316.685211 603.854370,294.738617 
	C575.989380,255.068390 548.123535,215.398727 520.305481,175.695587 
	C512.988770,165.252869 513.100464,165.219223 505.802551,175.617508 
	C467.043030,230.842972 428.263855,286.054626 389.498810,341.276154 
	C385.096375,347.547516 380.842590,353.926270 376.316895,360.106567 
	C374.165985,363.043854 374.259277,365.214569 376.791016,367.945648 
	C383.171692,374.828766 383.586395,375.035492 391.119751,369.837860 
	C413.197723,354.605438 435.452240,339.618256 457.251465,323.996155 
	C471.338226,313.901093 483.490814,301.396851 496.722382,290.218536 
	C497.957458,289.175110 498.840759,287.715271 499.242493,285.401123 
	C474.846680,297.841461 450.450867,310.281769 426.055054,322.722107 
	C425.629395,322.295807 425.203735,321.869537 424.778046,321.443237 
	C453.963837,279.905731 483.149597,238.368195 513.064697,195.792709 
	C543.016968,238.474808 572.381470,280.319336 601.708740,322.110718 
	C599.693420,324.048096 598.744385,322.551208 597.788574,321.921021 
	C588.471741,315.778473 579.098145,309.714172 569.948853,303.329315 
	C566.219055,300.726471 563.476929,300.550629 559.918457,303.781769 
	C539.448730,322.368805 518.917786,340.892487 498.164185,359.161102 
	C486.008301,369.861450 471.974609,378.050049 458.712311,387.256714 
	C433.396973,404.830597 407.857697,422.081940 382.536469,439.647522 
	C379.025238,442.083282 376.697723,442.097321 373.608551,439.098480 
	C351.491089,417.627625 329.267365,396.265991 307.018463,374.931122 
	C304.272247,372.297729 304.523926,370.016876 306.573761,367.096375 
	C329.256104,334.779999 351.874481,302.418640 374.482574,270.050201 
	C400.808929,232.358231 427.107880,194.647095 453.628784,156.652573 
z"/>
</svg>