<svg version="1.1" id="Layer_1" xmlns="http://www.w3.org/2000/svg" xmlns:xlink="http://www.w3.org/1999/xlink" x="0px" y="0px"
	 width="100%" viewBox="0 0 5963 5964" enable-background="new 0 0 5963 5964" xml:space="preserve">
<path fill="#FFFFFF" opacity="1.000000" stroke="none" 
	d="
M3908.000000,5968.000000 
	C2605.333496,5968.000000 1304.667114,5968.000000 4.000524,5968.000000 
	C4.000349,3980.000488 4.000349,1992.001221 4.000175,4.001324 
	C1991.999023,4.000883 3979.998047,4.000883 5967.998047,4.000442 
	C5967.998535,1991.998657 5967.998535,3979.997314 5967.999023,5967.998047 
	C5282.000000,5968.000000 4596.000000,5968.000000 3908.000000,5968.000000 
M1395.311279,4342.114258 
	C1392.158569,4343.230469 1389.001099,4344.333496 1385.854126,4345.465820 
	C1372.399414,4350.306152 1359.545044,4348.672852 1347.522705,4341.304199 
	C1341.300415,4337.490723 1334.838745,4333.616699 1329.725098,4328.524902 
	C1310.864258,4309.744141 1292.353760,4290.601074 1274.101807,4271.226562 
	C1269.602783,4266.450684 1266.188354,4260.503418 1262.955200,4254.714844 
	C1255.070801,4240.597168 1252.991699,4225.625000 1259.666748,4210.585938 
	C1263.953125,4200.928711 1268.921509,4191.375488 1274.940552,4182.718750 
	C1327.422241,4107.234863 1380.110474,4031.894043 1432.925903,3956.643311 
	C1624.675537,3683.440430 1816.517822,3410.302490 2008.289917,3137.115479 
	C2299.199707,2722.703125 2590.067139,2308.260498 2881.006348,1893.868408 
	C2898.614990,1868.787842 2916.397705,1843.816650 2934.700684,1819.242188 
	C2942.226807,1809.137207 2950.739746,1799.580688 2959.874023,1790.900635 
	C2976.250244,1775.339233 2990.458984,1775.403931 3007.203613,1790.965576 
	C3015.457764,1798.636841 3022.949707,1807.292725 3029.835938,1816.234985 
	C3041.620605,1831.537964 3052.876709,1847.262939 3063.974121,1863.077759 
	C3140.829590,1972.605591 3217.561035,2082.220703 3294.384521,2191.771240 
	C3357.819580,2282.229736 3421.329590,2372.635498 3484.800293,2463.068848 
	C3572.000977,2587.312256 3659.180664,2711.570801 3746.397949,2835.802246 
	C3833.615234,2960.033936 3920.855469,3084.249023 4008.108887,3208.455078 
	C4080.043945,3310.855957 4152.008789,3413.236816 4223.970215,3515.619629 
	C4246.515137,3547.696045 4269.097656,3579.745605 4291.653320,3611.814697 
	C4377.121094,3733.330078 4462.602539,3854.836426 4548.043945,3976.370605 
	C4596.261230,4044.956299 4644.384766,4113.606934 4692.621094,4182.179199 
	C4698.752930,4190.896484 4705.424316,4199.232422 4711.640625,4207.892090 
	C4721.462891,4221.575195 4722.977051,4235.865234 4714.866699,4251.062988 
	C4706.355957,4267.010254 4696.890625,4282.341797 4684.099609,4295.151367 
	C4659.013672,4320.274414 4629.306641,4334.227539 4592.898438,4333.383789 
	C4563.720703,4332.708008 4538.416504,4322.202637 4514.708496,4306.540039 
	C4504.708496,4299.933594 4495.236328,4292.532715 4485.353516,4285.741699 
	C4305.819336,4162.369629 4126.229004,4039.079834 3946.718750,3915.672852 
	C3865.036621,3859.518799 3783.545654,3803.085693 3701.845459,3746.957520 
	C3692.000977,3740.194336 3681.788086,3733.708984 3671.033936,3728.590332 
	C3655.533447,3721.212158 3639.824707,3722.448730 3625.470215,3732.184326 
	C3618.339600,3737.020508 3611.663330,3742.617432 3605.219971,3748.361816 
	C3527.643799,3817.521484 3450.205811,3886.836426 3372.616699,3955.981445 
	C3309.460205,4012.264160 3246.100098,4068.318604 3182.978760,4124.640625 
	C3176.571045,4130.357910 3170.275879,4136.607910 3165.517822,4143.679688 
	C3156.752686,4156.708496 3158.165039,4167.715332 3169.884277,4179.110352 
	C3177.954590,4186.956543 3186.730957,4194.271973 3195.991455,4200.666992 
	C3257.382812,4243.064941 3319.021729,4285.103516 3380.521729,4327.344238 
	C3588.526611,4470.208496 3796.547852,4613.049316 4004.482422,4756.015625 
	C4128.433105,4841.239258 4252.264648,4926.634766 4376.089355,5012.040039 
	C4453.959473,5065.750000 4531.650879,5119.719727 4609.605469,5173.307129 
	C4619.979004,5180.437500 4631.075195,5186.755371 4642.461914,5192.123047 
	C4664.686523,5202.599609 4686.691406,5200.780762 4706.957031,5186.989258 
	C4717.363770,5179.906738 4727.205078,5171.734863 4736.270020,5162.985840 
	C4771.273926,5129.203613 4805.853027,5094.980469 4840.608887,5060.939941 
	C4871.079590,5031.097656 4901.487793,5001.191406 4932.075684,4971.469727 
	C4986.552734,4918.536621 5041.152832,4865.730469 5095.687500,4812.856445 
	C5129.652832,4779.925293 5163.508789,4746.882324 5197.561035,4714.041504 
	C5239.280273,4673.806641 5281.134766,4633.711914 5322.966309,4593.593750 
	C5359.027832,4559.009766 5395.106934,4524.444336 5431.236328,4489.931641 
	C5469.292969,4453.578125 5507.689941,4417.575195 5545.329590,4380.795898 
	C5555.227539,4371.124512 5563.921875,4359.808105 5571.302246,4348.073242 
	C5581.366211,4332.070801 5582.874512,4314.231445 5576.385742,4296.231445 
	C5573.691406,4288.756836 5570.809570,4281.199707 5566.820312,4274.377441 
	C5560.491699,4263.554688 5553.421387,4253.135254 5546.208496,4242.865234 
	C5522.536133,4209.159668 5498.505859,4175.705566 5474.882324,4141.965332 
	C5250.649902,3821.710938 5026.453613,3501.431396 4802.296875,3181.124023 
	C4751.939941,3109.166748 4701.791992,3037.063232 4651.524414,2965.043457 
	C4523.089844,2781.031738 4394.728027,2596.969482 4266.154785,2413.055176 
	C4220.760254,2348.122070 4174.688477,2283.662598 4129.220215,2218.780762 
	C4108.993164,2189.917236 4089.791992,2160.335693 4069.620605,2131.432129 
	C3818.745605,1771.953979 3567.851318,1412.489014 3316.787598,1053.142334 
	C3242.414062,946.691528 3167.267822,840.780396 3092.948730,734.291565 
	C3066.686035,696.660950 3041.823730,658.052551 3016.341064,619.877869 
	C3005.740723,603.997681 2991.832520,593.947693 2970.667480,594.217957 
	C2967.120117,599.060425 2963.127930,604.296204 2959.358154,609.687439 
	C2857.044434,756.006104 2754.729248,902.323425 2652.464355,1048.676147 
	C2440.680908,1351.762939 2228.856445,1654.821411 2017.178467,1957.982178 
	C1793.679688,2278.072510 1570.458252,2598.356445 1346.884033,2918.394287 
	C1099.654663,3272.293945 852.185120,3626.026123 604.769714,3979.795898 
	C539.096802,4073.699219 473.172150,4167.426270 407.563446,4261.374512 
	C400.350830,4271.702148 393.510254,4282.508789 388.178528,4293.881836 
	C379.004211,4313.452148 380.819977,4332.830078 393.348450,4350.674316 
	C397.149597,4356.088867 401.646973,4361.118164 406.381653,4365.756348 
	C440.555634,4399.229980 475.030426,4432.391113 509.733826,4465.318848 
	C544.533447,4498.338379 578.967957,4531.742676 613.524536,4565.018066 
	C651.919617,4601.989746 690.246948,4639.031738 728.648376,4675.996582 
	C770.407837,4716.193848 812.252014,4756.303711 853.997192,4796.516113 
	C885.190674,4826.563965 916.248901,4856.752441 947.433167,4886.810059 
	C990.607178,4928.423828 1033.934937,4969.877930 1077.028442,5011.575195 
	C1124.911621,5057.905762 1172.556641,5104.481445 1220.419678,5150.833008 
	C1230.938843,5161.019531 1241.557007,5171.167969 1252.795532,5180.535156 
	C1280.413574,5203.554199 1305.942017,5203.739746 1335.889648,5187.036133 
	C1346.328125,5181.213867 1356.120728,5174.188965 1365.985474,5167.389648 
	C1425.220703,5126.559082 1484.283813,5085.478516 1543.604248,5044.772949 
	C1704.543823,4934.335938 1865.665527,4824.164062 2026.560791,4713.662109 
	C2201.726562,4593.359375 2375.989746,4471.743164 2553.566162,4354.969238 
	C2619.826660,4311.396484 2684.612305,4265.493652 2745.439453,4214.545898 
	C2802.630615,4166.644043 2858.598877,4117.244629 2914.237305,4067.533203 
	C3083.125488,3916.636230 3251.646240,3765.328125 3420.192871,3614.049805 
	C3470.753174,3568.669434 3520.820068,3522.738281 3571.394043,3477.373047 
	C3579.754639,3469.873291 3589.093994,3463.178711 3598.807373,3457.533203 
	C3618.445801,3446.119385 3639.463379,3444.903564 3660.278320,3453.832520 
	C3671.826416,3458.786377 3682.999268,3465.041992 3693.464844,3472.024658 
	C3796.529053,3540.791992 3899.414795,3609.826904 4002.335693,3678.808838 
	C4018.930664,3689.931396 4035.394531,3701.250977 4052.021729,3712.325195 
	C4062.998291,3719.635986 4069.109619,3724.286865 4086.422363,3712.102783 
	C4088.480469,3710.654297 4089.909668,3708.312256 4092.026611,3705.940186 
	C3723.552246,3180.922119 3355.318115,2656.244629 2987.020996,2131.611572 
	C2986.382812,2130.702393 2984.812988,2130.447754 2982.578857,2129.343994 
	C2980.410156,2132.174072 2977.985840,2135.112793 2975.802002,2138.220215 
	C2610.452637,2658.140869 2245.120361,3178.073486 1879.317627,3698.674316 
	C1885.414185,3704.531982 1890.576904,3709.492432 1894.734863,3713.487305 
	C1897.273560,3713.487305 1897.929077,3713.579834 1898.543945,3713.461182 
	C1899.188599,3713.336914 1899.795044,3713.012695 1900.416992,3712.772461 
	C1901.038818,3712.532715 1901.671265,3712.315186 1902.277588,3712.040527 
	C1903.489746,3711.491211 1904.698853,3710.932617 1905.888062,3710.335693 
	C1908.864014,3708.843262 1911.830811,3707.332275 1914.796265,3705.819580 
	C2207.104004,3556.697021 2499.411133,3407.573975 2791.719971,3258.453857 
	C2793.499023,3257.546387 2795.303223,3256.688477 2797.084717,3255.785889 
	C2798.271729,3255.184326 2799.415771,3254.492920 2800.623535,3253.938232 
	C2801.821533,3253.387939 2803.056885,3252.901611 2804.311523,3252.499268 
	C2804.931152,3252.300537 2805.695801,3252.159424 2806.276123,3252.351562 
	C2806.776367,3252.517090 2807.108398,3253.192383 2808.580811,3254.822266 
	C2805.479004,3274.904785 2796.050781,3292.572510 2780.158203,3306.726807 
	C2767.221680,3318.248291 2753.723145,3329.139893 2740.811768,3340.688721 
	C2663.855225,3409.526367 2587.145264,3478.640137 2510.058105,3547.331055 
	C2450.839844,3600.099365 2390.953613,3652.168213 2326.970703,3699.128174 
	C2263.062256,3746.033447 2198.747070,3792.432129 2133.573730,3837.556152 
	C1907.369751,3994.170654 1680.762207,4150.202637 1454.143433,4306.216797 
	C1436.098633,4318.639648 1416.790527,4329.227539 1395.311279,4342.114258 
z"/>
<path fill="#010101" opacity="1.000000" stroke="none" 
	d="
M1396.690430,4341.391602 
	C1416.790527,4329.227539 1436.098633,4318.639648 1454.143433,4306.216797 
	C1680.762207,4150.202637 1907.369751,3994.170654 2133.573730,3837.556152 
	C2198.747070,3792.432129 2263.062256,3746.033447 2326.970703,3699.128174 
	C2390.953613,3652.168213 2450.839844,3600.099365 2510.058105,3547.331055 
	C2587.145264,3478.640137 2663.855225,3409.526367 2740.811768,3340.688721 
	C2753.723145,3329.139893 2767.221680,3318.248291 2780.158203,3306.726807 
	C2796.050781,3292.572510 2805.479004,3274.904785 2808.580811,3254.822266 
	C2807.108398,3253.192383 2806.776367,3252.517090 2806.276123,3252.351562 
	C2805.695801,3252.159424 2804.931152,3252.300537 2804.311523,3252.499268 
	C2803.056885,3252.901611 2801.821533,3253.387939 2800.623535,3253.938232 
	C2799.415771,3254.492920 2798.271729,3255.184326 2797.084717,3255.785889 
	C2795.303223,3256.688477 2793.499023,3257.546387 2791.719971,3258.453857 
	C2499.411133,3407.573975 2207.104004,3556.697021 1914.796265,3705.819580 
	C1911.830811,3707.332275 1908.864014,3708.843262 1905.888062,3710.335693 
	C1904.698853,3710.932617 1903.489746,3711.491211 1902.277588,3712.040527 
	C1901.671265,3712.315186 1901.038818,3712.532715 1900.416992,3712.772461 
	C1899.795044,3713.012695 1899.188599,3713.336914 1898.543945,3713.461182 
	C1897.929077,3713.579834 1897.273560,3713.487305 1894.734863,3713.487305 
	C1890.576904,3709.492432 1885.414185,3704.531982 1879.317627,3698.674316 
	C2245.120361,3178.073486 2610.452637,2658.140869 2975.802002,2138.220215 
	C2977.985840,2135.112793 2980.410156,2132.174072 2982.578857,2129.343994 
	C2984.812988,2130.447754 2986.382812,2130.702393 2987.020996,2131.611572 
	C3355.318115,2656.244629 3723.552246,3180.922119 4092.026611,3705.940186 
	C4089.909668,3708.312256 4088.480469,3710.654297 4086.422363,3712.102783 
	C4069.109619,3724.286865 4062.998291,3719.635986 4052.021729,3712.325195 
	C4035.394531,3701.250977 4018.930664,3689.931396 4002.335693,3678.808838 
	C3899.414795,3609.826904 3796.529053,3540.791992 3693.464844,3472.024658 
	C3682.999268,3465.041992 3671.826416,3458.786377 3660.278320,3453.832520 
	C3639.463379,3444.903564 3618.445801,3446.119385 3598.807373,3457.533203 
	C3589.093994,3463.178711 3579.754639,3469.873291 3571.394043,3477.373047 
	C3520.820068,3522.738281 3470.753174,3568.669434 3420.192871,3614.049805 
	C3251.646240,3765.328125 3083.125488,3916.636230 2914.237305,4067.533203 
	C2858.598877,4117.244629 2802.630615,4166.644043 2745.439453,4214.545898 
	C2684.612305,4265.493652 2619.826660,4311.396484 2553.566162,4354.969238 
	C2375.989746,4471.743164 2201.726562,4593.359375 2026.560791,4713.662109 
	C1865.665527,4824.164062 1704.543823,4934.335938 1543.604248,5044.772949 
	C1484.283813,5085.478516 1425.220703,5126.559082 1365.985474,5167.389648 
	C1356.120728,5174.188965 1346.328125,5181.213867 1335.889648,5187.036133 
	C1305.942017,5203.739746 1280.413574,5203.554199 1252.795532,5180.535156 
	C1241.557007,5171.167969 1230.938843,5161.019531 1220.419678,5150.833008 
	C1172.556641,5104.481445 1124.911621,5057.905762 1077.028442,5011.575195 
	C1033.934937,4969.877930 990.607178,4928.423828 947.433167,4886.810059 
	C916.248901,4856.752441 885.190674,4826.563965 853.997192,4796.516113 
	C812.252014,4756.303711 770.407837,4716.193848 728.648376,4675.996582 
	C690.246948,4639.031738 651.919617,4601.989746 613.524536,4565.018066 
	C578.967957,4531.742676 544.533447,4498.338379 509.733826,4465.318848 
	C475.030426,4432.391113 440.555634,4399.229980 406.381653,4365.756348 
	C401.646973,4361.118164 397.149597,4356.088867 393.348450,4350.674316 
	C380.819977,4332.830078 379.004211,4313.452148 388.178528,4293.881836 
	C393.510254,4282.508789 400.350830,4271.702148 407.563446,4261.374512 
	C473.172150,4167.426270 539.096802,4073.699219 604.769714,3979.795898 
	C852.185120,3626.026123 1099.654663,3272.293945 1346.884033,2918.394287 
	C1570.458252,2598.356445 1793.679688,2278.072510 2017.178467,1957.982178 
	C2228.856445,1654.821411 2440.680908,1351.762939 2652.464355,1048.676147 
	C2754.729248,902.323425 2857.044434,756.006104 2959.358154,609.687439 
	C2963.127930,604.296204 2967.120117,599.060425 2970.667480,594.217957 
	C2991.832520,593.947693 3005.740723,603.997681 3016.341064,619.877869 
	C3041.823730,658.052551 3066.686035,696.660950 3092.948730,734.291565 
	C3167.267822,840.780396 3242.414062,946.691528 3316.787598,1053.142334 
	C3567.851318,1412.489014 3818.745605,1771.953979 4069.620605,2131.432129 
	C4089.791992,2160.335693 4108.993164,2189.917236 4129.220215,2218.780762 
	C4174.688477,2283.662598 4220.760254,2348.122070 4266.154785,2413.055176 
	C4394.728027,2596.969482 4523.089844,2781.031738 4651.524414,2965.043457 
	C4701.791992,3037.063232 4751.939941,3109.166748 4802.296875,3181.124023 
	C5026.453613,3501.431396 5250.649902,3821.710938 5474.882324,4141.965332 
	C5498.505859,4175.705566 5522.536133,4209.159668 5546.208496,4242.865234 
	C5553.421387,4253.135254 5560.491699,4263.554688 5566.820312,4274.377441 
	C5570.809570,4281.199707 5573.691406,4288.756836 5576.385742,4296.231445 
	C5582.874512,4314.231445 5581.366211,4332.070801 5571.302246,4348.073242 
	C5563.921875,4359.808105 5555.227539,4371.124512 5545.329590,4380.795898 
	C5507.689941,4417.575195 5469.292969,4453.578125 5431.236328,4489.931641 
	C5395.106934,4524.444336 5359.027832,4559.009766 5322.966309,4593.593750 
	C5281.134766,4633.711914 5239.280273,4673.806641 5197.561035,4714.041504 
	C5163.508789,4746.882324 5129.652832,4779.925293 5095.687500,4812.856445 
	C5041.152832,4865.730469 4986.552734,4918.536621 4932.075684,4971.469727 
	C4901.487793,5001.191406 4871.079590,5031.097656 4840.608887,5060.939941 
	C4805.853027,5094.980469 4771.273926,5129.203613 4736.270020,5162.985840 
	C4727.205078,5171.734863 4717.363770,5179.906738 4706.957031,5186.989258 
	C4686.691406,5200.780762 4664.686523,5202.599609 4642.461914,5192.123047 
	C4631.075195,5186.755371 4619.979004,5180.437500 4609.605469,5173.307129 
	C4531.650879,5119.719727 4453.959473,5065.750000 4376.089355,5012.040039 
	C4252.264648,4926.634766 4128.433105,4841.239258 4004.482422,4756.015625 
	C3796.547852,4613.049316 3588.526611,4470.208496 3380.521729,4327.344238 
	C3319.021729,4285.103516 3257.382812,4243.064941 3195.991455,4200.666992 
	C3186.730957,4194.271973 3177.954590,4186.956543 3169.884277,4179.110352 
	C3158.165039,4167.715332 3156.752686,4156.708496 3165.517822,4143.679688 
	C3170.275879,4136.607910 3176.571045,4130.357910 3182.978760,4124.640625 
	C3246.100098,4068.318604 3309.460205,4012.264160 3372.616699,3955.981445 
	C3450.205811,3886.836426 3527.643799,3817.521484 3605.219971,3748.361816 
	C3611.663330,3742.617432 3618.339600,3737.020508 3625.470215,3732.184326 
	C3639.824707,3722.448730 3655.533447,3721.212158 3671.033936,3728.590332 
	C3681.788086,3733.708984 3692.000977,3740.194336 3701.845459,3746.957520 
	C3783.545654,3803.085693 3865.036621,3859.518799 3946.718750,3915.672852 
	C4126.229004,4039.079834 4305.819336,4162.369629 4485.353516,4285.741699 
	C4495.236328,4292.532715 4504.708496,4299.933594 4514.708496,4306.540039 
	C4538.416504,4322.202637 4563.720703,4332.708008 4592.898438,4333.383789 
	C4629.306641,4334.227539 4659.013672,4320.274414 4684.099609,4295.151367 
	C4696.890625,4282.341797 4706.355957,4267.010254 4714.866699,4251.062988 
	C4722.977051,4235.865234 4721.462891,4221.575195 4711.640625,4207.892090 
	C4705.424316,4199.232422 4698.752930,4190.896484 4692.621094,4182.179199 
	C4644.384766,4113.606934 4596.261230,4044.956299 4548.043945,3976.370605 
	C4462.602539,3854.836426 4377.121094,3733.330078 4291.653320,3611.814697 
	C4269.097656,3579.745605 4246.515137,3547.696045 4223.970215,3515.619629 
	C4152.008789,3413.236816 4080.043945,3310.855957 4008.108887,3208.455078 
	C3920.855469,3084.249023 3833.615234,2960.033936 3746.397949,2835.802246 
	C3659.180664,2711.570801 3572.000977,2587.312256 3484.800293,2463.068848 
	C3421.329590,2372.635498 3357.819580,2282.229736 3294.384521,2191.771240 
	C3217.561035,2082.220703 3140.829590,1972.605591 3063.974121,1863.077759 
	C3052.876709,1847.262939 3041.620605,1831.537964 3029.835938,1816.234985 
	C3022.949707,1807.292725 3015.457764,1798.636841 3007.203613,1790.965576 
	C2990.458984,1775.403931 2976.250244,1775.339233 2959.874023,1790.900635 
	C2950.739746,1799.580688 2942.226807,1809.137207 2934.700684,1819.242188 
	C2916.397705,1843.816650 2898.614990,1868.787842 2881.006348,1893.868408 
	C2590.067139,2308.260498 2299.199707,2722.703125 2008.289917,3137.115479 
	C1816.517822,3410.302490 1624.675537,3683.440430 1432.925903,3956.643311 
	C1380.110474,4031.894043 1327.422241,4107.234863 1274.940552,4182.718750 
	C1268.921509,4191.375488 1263.953125,4200.928711 1259.666748,4210.585938 
	C1252.991699,4225.625000 1255.070801,4240.597168 1262.955200,4254.714844 
	C1266.188354,4260.503418 1269.602783,4266.450684 1274.101807,4271.226562 
	C1292.353760,4290.601074 1310.864258,4309.744141 1329.725098,4328.524902 
	C1334.838745,4333.616699 1341.300415,4337.490723 1347.522705,4341.304199 
	C1359.545044,4348.672852 1372.399414,4350.306152 1385.854126,4345.465820 
	C1389.001099,4344.333496 1392.158569,4343.230469 1396.690430,4341.391602 
z"/>
</svg>